
<svg width="295px" height="326px" viewBox="0 0 295 326" version="1.1" xmlns="http://www.w3.org/2000/svg" xmlns:xlink="http://www.w3.org/1999/xlink">
    <g id="MarketMind" stroke="none" stroke-width="1" fill="none" fill-rule="evenodd">
        <g id="Artboard-Copy-17" transform="translate(-103, -87)" fill="#007FFF">
            <g id="Group" transform="translate(103, 87)">
                <path d="M22,0 L175,0 C187.150264,-3.55271368e-15 197,9.8497355 197,22 L197,79 C197,91.1502645 206.849736,101 219,101 L273,101 C285.150264,101 295,110.849736 295,123 L295,178 C295,190.150264 285.150264,200 273,200 L219,200 C206.849736,200 197,190.150264 197,178 L197,123 C197,110.849736 187.150264,101 175,101 L22,101 C9.8497355,101 0,91.1502645 0,79 L0,22 C0,9.8497355 9.8497355,-7.10542736e-15 22,-7.10542736e-15 Z" id="Path"></path>
                <path d="M22,126 L175,126 C187.150264,126 197,135.849736 197,148 L197,205 C197,217.150264 206.849736,227 219,227 L273,227 C285.150264,227 295,236.849736 295,249 L295,304 C295,316.150264 285.150264,326 273,326 L219,326 C206.849736,326 197,316.150264 197,304 L197,249 C197,236.849736 187.150264,227 175,227 L22,227 C9.8497355,227 0,217.150264 0,205 L0,148 C0,135.849736 9.8497355,126 22,126 Z" id="Path" transform="translate(147.5, 226) scale(-1, -1) translate(-147.5, -226)"></path>
            </g>
        </g>
    </g>
</svg>